<?xml version="1.0" encoding="utf-8"?>
<!-- Generator: Adobe Illustrator 26.0.2, SVG Export Plug-In . SVG Version: 6.00 Build 0)  -->
<svg version="1.1" id="Layer_1" xmlns="http://www.w3.org/2000/svg" xmlns:xlink="http://www.w3.org/1999/xlink" x="0px" y="0px"
	 viewBox="0 0 600 600" style="enable-background:new 0 0 600 600;" xml:space="preserve">
<style type="text/css">
	.st0{fill-rule:evenodd;clip-rule:evenodd;fill:#EB7001;}
	.st1{fill-rule:evenodd;clip-rule:evenodd;fill:#F2F8F8;}
	.st2{fill:#FBB1A5;}
	.st3{fill-rule:evenodd;clip-rule:evenodd;fill:#F8453E;}
	.st4{fill-rule:evenodd;clip-rule:evenodd;fill:#802E6D;}
</style>
<g>
	<circle class="st0" cx="447.6" cy="118" r="74.9"/>
	<polygon class="st1" points="399.5,345.6 586.3,449 399.5,556.9 	"/>
	<g>
		<g>
			<path class="st2" d="M293.3,501.8c-115,0-208.6-93.6-208.6-208.6S178.2,84.6,293.3,84.6s208.6,93.6,208.6,208.6
				S408.3,501.8,293.3,501.8z M293.3,111.3c-100.3,0-181.9,81.6-181.9,181.9S193,475.1,293.3,475.1c100.3,0,181.9-81.6,181.9-181.9
				S393.5,111.3,293.3,111.3z"/>
		</g>
	</g>
	<polygon class="st3" points="340.1,227.7 359,246.6 313.6,292 359,337.4 340.1,356.3 294.7,310.9 249.3,356.3 230.4,337.4 
		275.8,292 230.4,246.6 249.3,227.7 294.7,273.1 	"/>
	<polygon class="st4" points="78.5,265.1 143.4,302.6 143.4,377.5 78.5,414.9 13.7,377.5 13.7,302.6 	"/>
</g>
</svg>
