<?xml version="1.0" encoding="UTF-8"?>
<svg id="Layer_1" xmlns="http://www.w3.org/2000/svg" version="1.1" viewBox="0 0 24 24">
  <!-- Generator: Adobe Illustrator 29.0.0, SVG Export Plug-In . SVG Version: 2.1.0 Build 186)  -->
  <defs>
    <style>
      .st0 {
        fill: #032222;
      }
    </style>
  </defs>
  <path class="st0" d="M19.9,11.1h-3.6c-1.8,0-3.2-1.4-3.2-3.2v-3.6c0-1.8,1.4-3.2,3.2-3.2h3.6c1.8,0,3.2,1.4,3.2,3.2v3.6c0,1.8-1.4,3.2-3.2,3.2ZM16.2,2.5c-.9,0-1.7.8-1.7,1.7v3.6c0,.9.8,1.7,1.7,1.7h3.6c.9,0,1.7-.8,1.7-1.7v-3.6c0-.9-.8-1.7-1.7-1.7h-3.6Z"/>
  <path class="st0" d="M7.9,11.1h-3.6c-1.8,0-3.2-1.4-3.2-3.2v-3.6c0-1.8,1.4-3.2,3.2-3.2h3.6c1.8,0,3.2,1.4,3.2,3.2v3.6c0,1.8-1.4,3.2-3.2,3.2ZM4.2,2.5c-.9,0-1.7.8-1.7,1.7v3.6c0,.9.8,1.7,1.7,1.7h3.6c.9,0,1.7-.8,1.7-1.7v-3.6c0-.9-.8-1.7-1.7-1.7h-3.6Z"/>
  <path class="st0" d="M19.9,23h-3.6c-1.8,0-3.2-1.4-3.2-3.2v-3.6c0-1.8,1.4-3.2,3.2-3.2h3.6c1.8,0,3.2,1.4,3.2,3.2v3.6c0,1.8-1.4,3.2-3.2,3.2ZM16.2,14.4c-.9,0-1.7.8-1.7,1.7v3.6c0,.9.8,1.7,1.7,1.7h3.6c.9,0,1.7-.8,1.7-1.7v-3.6c0-.9-.8-1.7-1.7-1.7h-3.6Z"/>
  <path class="st0" d="M7.9,23h-3.6c-1.8,0-3.2-1.4-3.2-3.2v-3.6c0-1.8,1.4-3.2,3.2-3.2h3.6c1.8,0,3.2,1.4,3.2,3.2v3.6c0,1.8-1.4,3.2-3.2,3.2ZM4.2,14.4c-.9,0-1.7.8-1.7,1.7v3.6c0,.9.8,1.7,1.7,1.7h3.6c.9,0,1.7-.8,1.7-1.7v-3.6c0-.9-.8-1.7-1.7-1.7h-3.6Z"/>
</svg>