<?xml version="1.0" encoding="utf-8"?>
<!-- Generator: Adobe Illustrator 28.1.0, SVG Export Plug-In . SVG Version: 6.00 Build 0)  -->
<svg version="1.1" id="Layer_1" xmlns="http://www.w3.org/2000/svg" xmlns:xlink="http://www.w3.org/1999/xlink" x="0px" y="0px"
	 viewBox="0 0 24 24" style="enable-background:new 0 0 24 24;" xml:space="preserve">

<path class="st0" d="M12,1.7c-4.3,0-8.1,2.7-9.6,6.6L1.5,5.8C1.3,5.4,0.9,5.2,0.6,5.4C0.2,5.5,0,5.9,0.1,6.3l1.5,4.1
	c0.1,0.3,0.4,0.5,0.7,0.5c0.1,0,0.2,0,0.2,0l4.1-1.5C7,9.2,7.2,8.8,7.1,8.5C6.9,8.1,6.5,7.9,6.2,8L3.6,8.9C4.9,5.4,8.2,3.1,12,3.1
	c4.9,0,8.9,4,8.9,8.9s-4,8.9-8.9,8.9c-3.9,0-7.4-2.6-8.5-6.4c-0.1-0.4-0.5-0.6-0.9-0.5C2.2,14.2,2,14.6,2.1,15
	c1.3,4.3,5.4,7.4,9.9,7.4c5.7,0,10.3-4.6,10.3-10.3C22.3,6.3,17.7,1.7,12,1.7z"/>
<g>
	<path class="st0" d="M16,14.7c-0.1,0-0.2,0-0.3-0.1l-4-2c-0.2-0.1-0.4-0.4-0.4-0.6V6c0-0.4,0.3-0.7,0.7-0.7s0.7,0.3,0.7,0.7v5.6
		l3.6,1.8c0.3,0.2,0.5,0.6,0.3,0.9C16.5,14.6,16.3,14.7,16,14.7z"/>
</g>
</svg>
