<?xml version="1.0" encoding="UTF-8"?>
<svg id="Layer_1" xmlns="http://www.w3.org/2000/svg" version="1.1" viewBox="0 0 28 28">
  <!-- Generator: Adobe Illustrator 29.0.0, SVG Export Plug-In . SVG Version: 2.1.0 Build 186)  -->
  <defs>
    <style>
      .st0 {
        fill: #032222;
      }
    </style>
  </defs>
  <path class="st0" d="M14.1,3.3c3.7,0,6.7,3,6.8,6.8,0,5.1,2,7.8,2.5,8.2s.5.6.4.9-.4.5-.7.5H5.1c-.3,0-.6-.2-.7-.5s.2-.7.4-.9c.5-.4,2.5-3.1,2.5-8.2s3.1-6.8,6.8-6.8Z"/>
  <path class="st0" d="M17.2,21.2v-.3c0-.2-.1-.3-.3-.3h-.9c-.2,0-.3.1-.3.3v.4c0,.9-.5,1.8-1.7,1.8s-1.7-1-1.7-1.8v-.4c0-.2-.1-.3-.3-.3h-.9c-.2,0-.3.1-.3.3v.3c0,1.6,1,3.4,3.2,3.4s3.2-1.8,3.2-3.4Z"/>
</svg>