<?xml version="1.0" encoding="UTF-8"?>
<svg id="Layer_1" xmlns="http://www.w3.org/2000/svg" version="1.1" viewBox="0 0 24 24">
  <!-- Generator: Adobe Illustrator 29.0.0, SVG Export Plug-In . SVG Version: 2.1.0 Build 186)  -->
  <defs>
    <style>
      .st0 {
        fill: #032222;
      }
    </style>
  </defs>
  <g id="Layer_11" data-name="Layer_1">
    <path class="st0" d="M12,1.2C6.1,1.2,1.2,6.1,1.2,12s4.8,10.8,10.8,10.8,10.8-4.8,10.8-10.8S17.9,1.2,12,1.2ZM12,4.6c2,0,3.6,1.6,3.6,3.6s-1.6,3.6-3.6,3.6-3.6-1.6-3.6-3.6,1.6-3.6,3.6-3.6ZM19,18c-1.6,1.9-4,3.2-7,3.2s-5.3-1.3-6.9-3.1v-1.2c0-1.9,1.5-3.5,3.5-3.5h6.9c1.9,0,3.5,1.5,3.5,3.5v1.1Z"/>
  </g>
</svg>