<?xml version="1.0" encoding="UTF-8"?>
<svg id="Layer_1" xmlns="http://www.w3.org/2000/svg" version="1.1" viewBox="0 0 28 28">
  <!-- Generator: Adobe Illustrator 29.0.0, SVG Export Plug-In . SVG Version: 2.1.0 Build 186)  -->

  <path class="st0" d="M21,24.8H7c-1.5,0-2.8-1.2-2.8-2.8v-11c0-.2.1-.4.3-.6L13.5,3.4c.3-.2.7-.2.9,0l9,7c.2.1.3.4.3.6v11c0,1.5-1.2,2.8-2.8,2.8ZM5.8,11.4v10.6c0,.7.6,1.2,1.2,1.2h14c.7,0,1.2-.6,1.2-1.2v-10.6l-8.2-6.4-8.2,6.4Z"/>
  <path class="st0" d="M17,24.8c-.4,0-.8-.3-.8-.8v-9.2h-4.5v9.2c0,.4-.3.8-.8.8s-.8-.3-.8-.8v-10c0-.4.3-.8.8-.8h6c.4,0,.8.3.8.8v10c0,.4-.3.8-.8.8Z"/>
</svg>