<?xml version="1.0" encoding="UTF-8"?>
<svg id="Layer_1" xmlns="http://www.w3.org/2000/svg" version="1.1" viewBox="0 0 28 28">
  <!-- Generator: Adobe Illustrator 29.0.0, SVG Export Plug-In . SVG Version: 2.1.0 Build 186)  -->
  <defs>
    <style>
      .st0 {
        fill: none;
        stroke: #032222;
        stroke-miterlimit: 10;
        stroke-width: 1.5px;
      }

      .st1 {
        fill: #032222;
      }
    </style>
  </defs>
  <path class="st1" d="M17.2,21.2v-.3c0-.2-.1-.3-.3-.3h-.9c-.2,0-.3.1-.3.3v.4c0,.9-.5,1.8-1.7,1.8s-1.7-1-1.7-1.8v-.4c0-.2-.1-.3-.3-.3h-.9c-.2,0-.3.1-.3.3v.3c0,1.6,1,3.4,3.2,3.4s3.2-1.8,3.2-3.4Z"/>
  <path class="st0" d="M14.1,3.9c3.4,0,6.2,2.8,6.3,6.3,0,4.7,1.9,7.2,2.3,7.6s.5.6.4.8-.4.5-.6.5H5.8c-.3,0-.6-.2-.6-.5s.2-.6.4-.8c.5-.4,2.3-2.9,2.3-7.6s2.9-6.3,6.3-6.3Z"/>
</svg>