<?xml version="1.0" encoding="utf-8"?>
<!-- Generator: Adobe Illustrator 26.0.0, SVG Export Plug-In . SVG Version: 6.00 Build 0)  -->
<svg version="1.1" id="Layer_1" xmlns="http://www.w3.org/2000/svg" xmlns:xlink="http://www.w3.org/1999/xlink" x="0px" y="0px"
	 viewBox="0 0 28 28" style="enable-background:new 0 0 28 28;" xml:space="preserve">
<path class="st0" d="M10.7,4.7c2.5-0.9,5.2-0.7,7.6,0.4c2.4,1.1,4.2,3.1,5.1,5.6c0.1,0.4-0.1,0.8-0.4,0.9c-0.4,0.1-0.8-0.1-0.9-0.4
	c-0.8-2.1-2.3-3.8-4.4-4.8c-2.1-1-4.4-1.1-6.5-0.3C10,6.5,8.9,7.2,8,8.1l-3.5,3.2h4.3c0.4,0,0.7,0.3,0.7,0.7c0,0.4-0.3,0.7-0.7,0.7
	H2.7c-0.1,0-0.2,0-0.3-0.1l0,0c-0.1,0-0.2-0.1-0.2-0.2c0,0,0,0,0,0c0,0,0-0.1-0.1-0.1c0,0-0.1-0.1-0.1-0.1c0-0.1,0-0.1,0-0.2
	c0,0,0-0.1,0-0.1V5.9c0-0.4,0.3-0.7,0.7-0.7c0.4,0,0.7,0.3,0.7,0.7v4.5L7,7C8,6,9.3,5.2,10.7,4.7z M25.3,15.3
	C25.3,15.3,25.3,15.3,25.3,15.3c0.1,0,0.1,0,0.2,0c0,0,0.1,0,0.1,0c0,0,0,0,0.1,0c0.1,0,0.1,0.1,0.2,0.1c0,0,0,0,0,0
	c0,0,0,0.1,0,0.1c0,0,0.1,0.1,0.1,0.2c0,0,0,0.1,0,0.1c0,0,0,0.1,0,0.1v6.1c0,0.4-0.3,0.7-0.7,0.7c-0.4,0-0.7-0.3-0.7-0.7v-4.5
	L21,21c-1.9,1.9-4.5,2.9-7,2.9c-2.5,0-5.1-1-7-2.9c-1-1-1.9-2.3-2.3-3.7c-0.1-0.4,0.1-0.8,0.4-0.9c0.4-0.1,0.8,0.1,0.9,0.4
	C6.4,18,7.1,19.1,8,20c3.3,3.3,8.7,3.3,12,0l3.5-3.2h-4.3c-0.4,0-0.7-0.3-0.7-0.7c0-0.4,0.3-0.7,0.7-0.7H25.3z"/>
</svg>
