<?xml version="1.0" encoding="utf-8"?>
<!-- Generator: Adobe Illustrator 26.0.0, SVG Export Plug-In . SVG Version: 6.00 Build 0)  -->
<svg version="1.1" id="Layer_1" xmlns="http://www.w3.org/2000/svg" xmlns:xlink="http://www.w3.org/1999/xlink" x="0px" y="0px"
	 viewBox="0 0 28 28" style="enable-background:new 0 0 28 28;" xml:space="preserve">
<path class="st0" d="M22.5,22.5c2.2-2.2,3.5-5.2,3.5-8.5c0-6.6-5.4-12-12-12c-3.3,0-6.3,1.3-8.5,3.5c0,0,0,0,0,0c0,0,0,0,0,0
	C3.3,7.7,2,10.7,2,14c0,6.6,5.4,12,12,12C17.3,26,20.3,24.7,22.5,22.5C22.5,22.5,22.5,22.5,22.5,22.5C22.5,22.5,22.5,22.5,22.5,22.5
	 M24.4,14c0,2.6-1,5-2.5,6.8L7.2,6.1C9,4.5,11.4,3.6,14,3.6C19.8,3.6,24.4,8.2,24.4,14 M3.6,14c0-2.6,1-5,2.5-6.8l14.7,14.7
	c-1.8,1.6-4.2,2.5-6.8,2.5C8.2,24.4,3.6,19.8,3.6,14"/>
</svg>
