<?xml version="1.0" encoding="utf-8"?>
<!-- Generator: Adobe Illustrator 26.0.0, SVG Export Plug-In . SVG Version: 6.00 Build 0)  -->
<svg version="1.1" id="Layer_1" xmlns="http://www.w3.org/2000/svg" xmlns:xlink="http://www.w3.org/1999/xlink" x="0px" y="0px"
	 viewBox="0 0 28 28" style="enable-background:new 0 0 28 28;" xml:space="preserve">
<path class="st0" d="M14,9.7c2.4,0,4.3,1.9,4.3,4.3c0,2.4-1.9,4.3-4.3,4.3c-2.4,0-4.3-1.9-4.3-4.3C9.7,11.6,11.6,9.7,14,9.7z
	 M14,3.6C8.2,3.6,3.6,8.2,3.6,14S8.2,24.4,14,24.4S24.4,19.8,24.4,14S19.8,3.6,14,3.6z M14,2c6.6,0,12,5.4,12,12s-5.4,12-12,12
	S2,20.6,2,14S7.4,2,14,2z"/>
</svg>
