<?xml version="1.0" encoding="utf-8"?>
<!-- Generator: Adobe Illustrator 26.0.0, SVG Export Plug-In . SVG Version: 6.00 Build 0)  -->
<svg version="1.1" id="Layer_1" xmlns="http://www.w3.org/2000/svg" xmlns:xlink="http://www.w3.org/1999/xlink" x="0px" y="0px"
	 viewBox="0 0 28 28" style="enable-background:new 0 0 28 28;" xml:space="preserve">
<path class="st0" d="M24.7,5.2c0.3-0.3,0.8-0.3,1.1,0c0.3,0.3,0.3,0.8,0,1.1L14.7,17.8c-0.1,0.1-0.3,0.2-0.5,0.2
	c-0.2,0-0.4-0.1-0.6-0.2l-3.3-3.4c-0.3-0.3-0.3-0.8,0-1.1c0.3-0.3,0.8-0.3,1.1,0l2.8,2.9L24.7,5.2z M14,2c1.7,0,3.3,0.4,4.9,1
	c0.4,0.2,0.6,0.6,0.4,1c-0.2,0.4-0.6,0.6-1,0.4c-1.3-0.6-2.8-0.9-4.2-0.9c-2.8,0-5.4,1.1-7.4,3.1c-2,2-3.1,4.6-3.1,7.4
	c0,5.8,4.7,10.4,10.4,10.4c5.8,0,10.4-4.7,10.4-10.4v-1c0-0.4,0.4-0.8,0.8-0.8c0.4,0,0.8,0.4,0.8,0.8v1c0,6.6-5.4,12-12,12
	C7.4,26,2,20.6,2,14c0-3.2,1.3-6.2,3.5-8.5C7.8,3.2,10.8,2,14,2L14,2z"/>
</svg>
