<?xml version="1.0" encoding="utf-8"?>
<!-- Generator: Adobe Illustrator 26.2.1, SVG Export Plug-In . SVG Version: 6.00 Build 0)  -->
<svg version="1.1" id="Layer_1" xmlns="http://www.w3.org/2000/svg" xmlns:xlink="http://www.w3.org/1999/xlink" x="0px" y="0px"
	 viewBox="0 0 28 28" style="enable-background:new 0 0 28 28;" xml:space="preserve">
<g>
	<path class="st0" d="M17.9,20.1c-0.4-0.2-0.8,0-0.9,0.4c-0.9,2.2-3.1,3.7-5.5,3.7c-3.3,0-6-2.7-6-6c0-2.4,1.4-4.6,3.7-5.5
		c0.4-0.2,0.5-0.6,0.4-0.9c-0.2-0.4-0.6-0.5-0.9-0.4c-2.7,1.2-4.5,3.8-4.5,6.8c0,4.1,3.3,7.4,7.4,7.4c3,0,5.6-1.8,6.8-4.5
		C18.4,20.7,18.2,20.3,17.9,20.1z"/>
	<path class="st0" d="M25.9,20.7c-0.2-0.3-0.6-0.4-1-0.2L23,21.7l-4.2-6.5c-0.1-0.2-0.4-0.3-0.6-0.3h-5.8v-3.2h6.2
		c0.4,0,0.7-0.3,0.7-0.7s-0.3-0.7-0.7-0.7h-6.2V9.4c0-0.4-0.3-0.7-0.7-0.7S11.1,9,11.1,9.4v6.2c0,0.4,0.3,0.7,0.7,0.7h6.1l4.4,6.8
		c0.1,0.2,0.3,0.3,0.4,0.3c0,0,0.1,0,0.1,0c0.1,0,0.3,0,0.4-0.1l2.5-1.6C26,21.5,26.1,21,25.9,20.7z"/>
	<path class="st0" d="M11.8,8.1c1.5,0,2.8-1.3,2.8-2.8s-1.3-2.8-2.8-2.8S9,3.7,9,5.3S10.2,8.1,11.8,8.1z M11.8,3.9
		c0.8,0,1.4,0.6,1.4,1.4s-0.6,1.4-1.4,1.4S10.4,6,10.4,5.3S11,3.9,11.8,3.9z"/>
</g>
</svg>
