<?xml version="1.0" encoding="utf-8"?>
<!-- Generator: Adobe Illustrator 26.0.0, SVG Export Plug-In . SVG Version: 6.00 Build 0)  -->
<svg version="1.1" id="Layer_1" xmlns="http://www.w3.org/2000/svg" xmlns:xlink="http://www.w3.org/1999/xlink" x="0px" y="0px"
	 viewBox="0 0 28 28" style="enable-background:new 0 0 28 28;" xml:space="preserve">
<style type="text/css">
	.st0{fill-rule:evenodd;clip-rule:evenodd;}
</style>
<path class="st0" d="M14,5.7c-1.8,0-3.3,1.5-3.3,3.3s1.5,3.3,3.3,3.3s3.3-1.5,3.3-3.3S15.8,5.7,14,5.7z M14,4.3
	c2.6,0,4.7,2.1,4.7,4.7s-2.1,4.7-4.7,4.7S9.3,11.6,9.3,9S11.4,4.3,14,4.3z M18,16.3c2.6,0,4.7,2.1,4.7,4.7v2c0,0.4-0.3,0.7-0.7,0.7
	s-0.7-0.3-0.7-0.7v-2c0-1.8-1.5-3.3-3.3-3.3h-8c-1.8,0-3.3,1.5-3.3,3.3v2c0,0.4-0.3,0.7-0.7,0.7c-0.4,0-0.7-0.3-0.7-0.7v-2
	c0-2.6,2.1-4.7,4.7-4.7H18z" fill="#032222"/>
</svg>
