<?xml version="1.0" encoding="utf-8"?>
<!-- Generator: Adobe Illustrator 26.0.0, SVG Export Plug-In . SVG Version: 6.00 Build 0)  -->
<svg version="1.1" id="Layer_1" xmlns="http://www.w3.org/2000/svg" xmlns:xlink="http://www.w3.org/1999/xlink" x="0px" y="0px"
	 viewBox="0 0 28 28" style="enable-background:new 0 0 28 28;" xml:space="preserve">
<style type="text/css">
	.st0{fill-rule:evenodd;clip-rule:evenodd;}
</style>
<path class="st0" d="M14,10.4c0.4,0,0.7,0.3,0.7,0.7v4c0,0.4-0.3,0.7-0.7,0.7s-0.7-0.3-0.7-0.7v-4C13.3,10.7,13.6,10.4,14,10.4z
	 M14,18.4c0.4,0,0.7,0.3,0.7,0.7c0,0.4-0.3,0.7-0.7,0.7s-0.7-0.3-0.7-0.7C13.3,18.7,13.6,18.4,14,18.4L14,18.4z M15.1,6.3
	c-0.4-0.6-1.2-0.8-1.8-0.4c-0.2,0.1-0.3,0.3-0.4,0.4L4.4,20.4c-0.4,0.6-0.1,1.4,0.5,1.8c0.2,0.1,0.4,0.2,0.6,0.2h16.9
	c0.3,0,0.7-0.1,0.9-0.4c0.2-0.2,0.4-0.6,0.4-0.9c0-0.2-0.1-0.4-0.2-0.6L15.1,6.3z M12.6,4.6c1.3-0.8,2.9-0.4,3.7,0.9l8.5,14.1
	c0.2,0.4,0.4,0.9,0.4,1.3c0,0.7-0.3,1.4-0.8,1.9c-0.5,0.5-1.2,0.8-1.9,0.8H5.5c-0.5,0-0.9-0.1-1.3-0.4c-1.3-0.7-1.7-2.4-1-3.7
	l8.5-14.1c0,0,0,0,0,0C11.9,5.2,12.2,4.9,12.6,4.6z" fill="#032222"/>
</svg>
