<?xml version="1.0" encoding="utf-8"?>
<!-- Generator: Adobe Illustrator 26.0.2, SVG Export Plug-In . SVG Version: 6.00 Build 0)  -->
<svg version="1.1" id="Layer_1" xmlns="http://www.w3.org/2000/svg" xmlns:xlink="http://www.w3.org/1999/xlink" x="0px" y="0px"
	 viewBox="0 0 300 300" style="enable-background:new 0 0 300 300;" xml:space="preserve">
<g>
	<path class="st0" d="M223.4,135.9c0-40.5-32.9-73.4-73.4-73.4c-40.5,0-73.4,32.9-73.4,73.4c0,40.5,32.9,73.4,73.4,73.4v0
		c13.1,0,22.9,10.7,22.9,23.8c0,13.1-9.8,23.8-22.9,23.8v34.2c32,0,58-26,58-58c0-14.6-5.5-28-14.4-38.2
		C211.6,181.5,223.4,160.1,223.4,135.9z M110.8,135.9c0-21.6,17.6-39.2,39.2-39.2c21.6,0,39.2,17.6,39.2,39.2
		c0,21.6-17.6,39.2-39.2,39.2C128.4,175.2,110.8,157.5,110.8,135.9z"/>
	<rect x="84.7" y="8.9" class="st0" width="130.5" height="34.1"/>
</g>
</svg>
