<?xml version="1.0" encoding="utf-8"?>
<!-- Generator: Adobe Illustrator 26.0.0, SVG Export Plug-In . SVG Version: 6.00 Build 0)  -->
<svg version="1.1" id="Layer_1" xmlns="http://www.w3.org/2000/svg" xmlns:xlink="http://www.w3.org/1999/xlink" x="0px" y="0px"
	 viewBox="0 0 28 28" style="enable-background:new 0 0 28 28;" xml:space="preserve">
<path class="st0" d="M10.3,25c-1.7,0-3.4-0.7-4.7-2c-2.6-2.6-2.6-6.9,0-9.5l9.2-9.2C15.6,3.5,16.8,3,18.1,3c1.3,0,2.4,0.5,3.3,1.4
	c1.8,1.8,1.8,4.8,0,6.6l-9.2,9.2c-1.1,1.1-2.8,1.1-3.8,0c-0.5-0.5-0.8-1.2-0.8-1.9c0-0.7,0.3-1.4,0.8-1.9l8.5-8.5
	c0.3-0.3,0.7-0.3,1,0c0.3,0.3,0.3,0.7,0,1l-8.5,8.5C9.1,17.6,9,18,9,18.3c0,0.3,0.1,0.7,0.4,0.9c0.5,0.5,1.3,0.5,1.8,0l9.2-9.2
	c1.3-1.3,1.3-3.4,0-4.7c-1.2-1.2-3.4-1.2-4.7,0l-9.2,9.2c-2.1,2.1-2.1,5.4,0,7.5c2.1,2.1,5.4,2.1,7.5,0l9.2-9.2c0.3-0.3,0.7-0.3,1,0
	c0.3,0.3,0.3,0.7,0,1L15,23C13.7,24.4,12,25,10.3,25"/>
</svg>
