<?xml version="1.0" encoding="utf-8"?>
<!-- Generator: Adobe Illustrator 26.2.1, SVG Export Plug-In . SVG Version: 6.00 Build 0)  -->
<svg version="1.1" id="Layer_1" xmlns="http://www.w3.org/2000/svg" xmlns:xlink="http://www.w3.org/1999/xlink" x="0px" y="0px"
	 viewBox="0 0 28 28" style="enable-background:new 0 0 28 28;" xml:space="preserve">
<path class="st0" d="M21,5.3h-2.3V4c0-0.4-0.3-0.7-0.7-0.7S17.3,3.6,17.3,4v1.3h-6.6V4c0-0.4-0.3-0.7-0.7-0.7C9.6,3.3,9.3,3.6,9.3,4
	v1.3H7C5.5,5.3,4.3,6.5,4.3,8v14c0,1.5,1.2,2.7,2.7,2.7h14c1.5,0,2.7-1.2,2.7-2.7V8C23.7,6.5,22.5,5.3,21,5.3 M7,6.7h2.3V8
	c0,0.4,0.3,0.7,0.7,0.7c0.4,0,0.7-0.3,0.7-0.7V6.7h6.6V8c0,0.4,0.3,0.7,0.7,0.7s0.7-0.3,0.7-0.7V6.7H21c0.7,0,1.3,0.6,1.3,1.3v3.3
	H5.7V8C5.7,7.3,6.3,6.7,7,6.7 M21,23.3H7c-0.7,0-1.3-0.6-1.3-1.3v-9.3h16.6V22C22.3,22.7,21.7,23.3,21,23.3"/>
</svg>
