<?xml version="1.0" encoding="utf-8"?>
<!-- Generator: Adobe Illustrator 26.0.2, SVG Export Plug-In . SVG Version: 6.00 Build 0)  -->
<svg version="1.1" id="Layer_1" xmlns="http://www.w3.org/2000/svg" xmlns:xlink="http://www.w3.org/1999/xlink" x="0px" y="0px"
	 viewBox="0 0 28 28" style="enable-background:new 0 0 28 28;" xml:space="preserve">


		<path class="st0" d="M14.5,2.6C7.9,2.6,2.6,7.9,2.6,14.5c0,6.6,5.3,11.9,11.9,11.9c6.6,0,11.9-5.3,11.9-11.9
			C26.4,7.9,21.1,2.6,14.5,2.6z M20.9,15c-0.1,0.1-0.3,0.2-0.5,0.2s-0.4-0.1-0.5-0.2l-4.7-4.7v10.2c0,0.4-0.3,0.7-0.7,0.7
			s-0.7-0.3-0.7-0.7V10.2L9.1,15c-0.3,0.3-0.7,0.3-1,0s-0.3-0.7,0-1L14,8.1c0.1-0.1,0.1-0.1,0.2-0.2c0.2-0.1,0.4-0.1,0.5,0
			c0.1,0,0.2,0.1,0.2,0.2l5.9,5.9C21.2,14.3,21.2,14.7,20.9,15z"/>

</svg>
