<?xml version="1.0" encoding="utf-8"?>
<!-- Generator: Adobe Illustrator 26.0.0, SVG Export Plug-In . SVG Version: 6.00 Build 0)  -->
<svg version="1.1" id="Layer_1" xmlns="http://www.w3.org/2000/svg" xmlns:xlink="http://www.w3.org/1999/xlink" x="0px" y="0px"
	 viewBox="0 0 28 28" style="enable-background:new 0 0 28 28;" xml:space="preserve">
<path class="st0" d="M14.8,14.1l6.8-6.8C22,7,22,6.4,21.6,6.1c-0.3-0.3-0.9-0.3-1.2,0l-6.8,6.8L6.7,6.1c-0.3-0.3-0.9-0.3-1.2,0
	C5.2,6.4,5.2,7,5.5,7.3l6.8,6.8L5.5,21c-0.3,0.3-0.3,0.9,0,1.2c0.2,0.2,0.4,0.3,0.6,0.3c0.2,0,0.4-0.1,0.6-0.3l6.8-6.8l6.8,6.8
	c0.2,0.2,0.4,0.3,0.6,0.3c0.2,0,0.4-0.1,0.6-0.3c0.3-0.3,0.3-0.9,0-1.2L14.8,14.1z"/>
</svg>
