<?xml version="1.0" encoding="utf-8"?>
<!-- Generator: Adobe Illustrator 27.1.1, SVG Export Plug-In . SVG Version: 6.00 Build 0)  -->
<svg version="1.1" id="Layer_1" xmlns="http://www.w3.org/2000/svg" xmlns:xlink="http://www.w3.org/1999/xlink" x="0px" y="0px"
	 viewBox="0 0 28 28" style="enable-background:new 0 0 28 28;" xml:space="preserve">
<path class="st0" d="M23,7.3h-4.3V6c0-1.5-1.2-2.7-2.7-2.7h-4c-1.5,0-2.7,1.2-2.7,2.7v1.3H5C4.6,7.3,4.3,7.6,4.3,8
	c0,0.4,0.3,0.7,0.7,0.7h1.3V22c0,1.5,1.2,2.7,2.7,2.7h10c1.5,0,2.7-1.2,2.7-2.7V8.7H23c0.4,0,0.7-0.3,0.7-0.7
	C23.7,7.6,23.4,7.3,23,7.3z M10.7,6c0-0.7,0.6-1.3,1.3-1.3h4c0.7,0,1.3,0.6,1.3,1.3v1.3h-6.6V6z M20.3,22c0,0.7-0.6,1.3-1.3,1.3H9
	c-0.7,0-1.3-0.6-1.3-1.3V8.7h12.6V22z"/>
</svg>
