<?xml version="1.0" encoding="utf-8"?>
<!-- Generator: Adobe Illustrator 26.0.0, SVG Export Plug-In . SVG Version: 6.00 Build 0)  -->
<svg version="1.1" id="Layer_1" xmlns="http://www.w3.org/2000/svg" xmlns:xlink="http://www.w3.org/1999/xlink" x="0px" y="0px"
	 viewBox="0 0 28 28" style="enable-background:new 0 0 28 28;" xml:space="preserve">
<path class="st0" d="M14,3.8c0.4,0,0.7,0.3,0.7,0.7v10.8l4-4c0.3-0.3,0.8-0.3,1,0c0.3,0.3,0.3,0.8,0,1l-5.3,5.3
	c-0.1,0.1-0.1,0.1-0.2,0.2c-0.1,0-0.2,0.1-0.3,0.1c-0.1,0-0.2,0-0.3-0.1c-0.1,0-0.2-0.1-0.2-0.2l-5.3-5.3c-0.3-0.3-0.3-0.8,0-1
	c0.3-0.3,0.8-0.3,1,0l4,4V4.5C13.3,4.1,13.6,3.8,14,3.8z M23.5,16.4c0.4,0,0.7,0.3,0.7,0.7v4.2c0,1.6-1.3,2.8-2.8,2.8H6.6
	c-1.6,0-2.8-1.3-2.8-2.8v-4.2c0-0.4,0.3-0.7,0.7-0.7s0.7,0.3,0.7,0.7v4.2c0,0.8,0.6,1.4,1.4,1.4h14.7c0.8,0,1.4-0.6,1.4-1.4v-4.2
	C22.7,16.7,23.1,16.4,23.5,16.4z"/>
</svg>
