<?xml version="1.0" encoding="utf-8"?>
<!-- Generator: Adobe Illustrator 27.1.1, SVG Export Plug-In . SVG Version: 6.00 Build 0)  -->
<svg version="1.1" id="Layer_1" xmlns="http://www.w3.org/2000/svg" xmlns:xlink="http://www.w3.org/1999/xlink" x="0px" y="0px"
	 viewBox="0 0 28 28" style="enable-background:new 0 0 28 28;" xml:space="preserve">
<path class="st0" d="M4.1,24.6c-0.2,0-0.4-0.1-0.5-0.2c-0.2-0.2-0.2-0.4-0.2-0.7l1.5-5.5c0-0.1,0.1-0.2,0.2-0.3L18.6,4.4
	c1.4-1.4,3.6-1.4,5,0c1.4,1.4,1.4,3.6,0,5L10.1,22.9C10,23,9.9,23.1,9.8,23.1l-5.5,1.5C4.2,24.6,4.1,24.6,4.1,24.6z M6.2,18.8
	l-1.1,4.1l4.1-1.1L22.6,8.4c0.8-0.8,0.8-2.2,0-3s-2.2-0.8-3,0L6.2,18.8z"/>
</svg>
