<?xml version="1.0" encoding="utf-8"?>
<!-- Generator: Adobe Illustrator 26.0.0, SVG Export Plug-In . SVG Version: 6.00 Build 0)  -->
<svg version="1.1" id="Layer_1" xmlns="http://www.w3.org/2000/svg" xmlns:xlink="http://www.w3.org/1999/xlink" x="0px" y="0px"
	 viewBox="0 0 28 28" style="enable-background:new 0 0 28 28;" xml:space="preserve">
<style type="text/css">
	.st0{fill-rule:evenodd;clip-rule:evenodd;}
</style>
<path class="st0" d="M22,5.3H6C4.5,5.3,3.3,6.5,3.3,8v12c0,1.5,1.2,2.7,2.7,2.7h16c1.5,0,2.7-1.2,2.7-2.7V8
	C24.7,6.5,23.5,5.3,22,5.3 M6,6.7h16c0.6,0,1.1,0.4,1.2,1L14,14.1L4.8,7.7C4.9,7.1,5.4,6.7,6,6.7 M22,21.3H6c-0.7,0-1.3-0.6-1.3-1.3
	V9.3l8.9,6.2c0.1,0.1,0.3,0.1,0.4,0.1s0.3,0,0.4-0.1l8.9-6.2V20C23.3,20.7,22.7,21.3,22,21.3" fill="#032222"/>
</svg>
