<?xml version="1.0" encoding="utf-8"?>
<!-- Generator: Adobe Illustrator 28.1.0, SVG Export Plug-In . SVG Version: 6.00 Build 0)  -->
<svg version="1.1" id="Layer_1" xmlns="http://www.w3.org/2000/svg" xmlns:xlink="http://www.w3.org/1999/xlink" x="0px" y="0px"
	 viewBox="0 0 28 28" style="enable-background:new 0 0 28 28;" xml:space="preserve">

<path class="st0" d="M22.7,9.7c0-0.1-0.1-0.2-0.2-0.2l-6-6c-0.1-0.1-0.1-0.1-0.2-0.2c-0.1,0-0.2-0.1-0.3-0.1H8
	C6.5,3.3,5.3,4.5,5.3,6v16c0,1.5,1.2,2.7,2.7,2.7h12c1.5,0,2.7-1.2,2.7-2.7V10C22.7,9.9,22.7,9.8,22.7,9.7z M16.7,5.7l3.6,3.6h-3.6
	V5.7z M20,23.3H8c-0.7,0-1.3-0.6-1.3-1.3V6c0-0.7,0.6-1.3,1.3-1.3h7.3V10c0,0.4,0.3,0.7,0.7,0.7h5.3V22C21.3,22.8,20.7,23.3,20,23.3
	z"/>
</svg>
