<?xml version="1.0" encoding="utf-8"?>
<!-- Generator: Adobe Illustrator 26.0.0, SVG Export Plug-In . SVG Version: 6.00 Build 0)  -->
<svg version="1.1" id="Layer_1" xmlns="http://www.w3.org/2000/svg" xmlns:xlink="http://www.w3.org/1999/xlink" x="0px" y="0px"
	 viewBox="0 0 28 28" style="enable-background:new 0 0 28 28;" xml:space="preserve">
<path class="st0" d="M19.3,8.3c-1.1,0-1.9,0.9-1.9,1.9c0,1.1,0.9,1.9,1.9,1.9c1.1,0,1.9-0.9,1.9-1.9C21.2,9.2,20.3,8.3,19.3,8.3z
	 M19.3,6.9c1.8,0,3.3,1.5,3.3,3.3c0,1.8-1.5,3.3-3.3,3.3c-1.6,0-2.9-1.1-3.2-2.6c0,0,0,0,0,0H6.1c-0.4,0-0.7-0.3-0.7-0.7
	c0-0.4,0.3-0.7,0.7-0.7H16c0,0,0,0,0,0C16.4,8,17.7,6.9,19.3,6.9z M8.7,15.9c-1.1,0-1.9,0.9-1.9,1.9c0,1.1,0.9,1.9,1.9,1.9
	c1.1,0,1.9-0.9,1.9-1.9C10.6,16.7,9.8,15.9,8.7,15.9z M8.7,14.5c1.6,0,2.9,1.1,3.2,2.6c0,0,0,0,0,0h9.9c0.4,0,0.7,0.3,0.7,0.7
	c0,0.4-0.3,0.7-0.7,0.7H12c0,0,0,0,0,0c-0.3,1.5-1.6,2.6-3.2,2.6c-1.8,0-3.3-1.5-3.3-3.3S6.9,14.5,8.7,14.5z"/>
</svg>
