<?xml version="1.0" encoding="utf-8"?>
<!-- Generator: Adobe Illustrator 26.2.1, SVG Export Plug-In . SVG Version: 6.00 Build 0)  -->
<svg version="1.1" id="Layer_1" xmlns="http://www.w3.org/2000/svg" xmlns:xlink="http://www.w3.org/1999/xlink" x="0px" y="0px"
	 viewBox="0 0 300 300" style="enable-background:new 0 0 300 300;" xml:space="preserve">
<g id="sTFWEX.tif">
	<g>
		<g>
			<path class="st0" d="M76.3,15c53.6,0,107.2,0,160.8,0c0.3,0.2,0.6,0.4,0.9,0.5c6.3,2.4,9,7.2,7.7,14c-2.5,13.2-5,26.4-7.5,39.6
				c-7.3,38.5-14.6,77.1-22,115.6c-1.6,8.6-5.2,11.5-13.9,11.5c-16,0-32,0-48,0c-1.7,0-2.9,0.5-4.1,1.8
				c-24.5,26.8-49,53.5-73.5,80.3c-2.6,2.8-5.2,5.4-8.8,6.7c-1.6,0-3.2,0-4.7,0c-6.8-2.5-9.1-7.4-9.1-14.5
				c0.1-75.5,0.1-151.1,0.1-226.6c0-1.3,0-2.6,0-4c0.5-7.4,3.4-13.6,9-18.6C67,17.9,71.6,16.5,76.3,15z M205.9,116.9
				c-1.3,0-2.4,0-3.4,0c-19.2,0-38.3,0-57.5,0c-1.2,0-2.5,0-3.7-0.1c-6.9-0.6-11.6-7.3-9.9-14c1.5-5.5,5.8-8.6,12.3-8.6
				c21.4,0,42.7,0,64.1,0c1.8,0,2.6-0.5,2.9-2.3c2.7-14.6,5.5-29.1,8.3-43.7c0.6-3.4,1.2-6.8,1.9-10.4c-1.3,0-2.2,0-3,0
				c-45.3,0-90.5,0-135.8,0c-4.5,0-5.3,0.8-5.3,5.4c0,66,0,132,0,198c0,0.8,0,1.7,0,3.3c1.1-1.2,1.8-1.9,2.4-2.6
				c19-20.7,38.1-41.4,56.9-62.2c3.9-4.3,8.2-6.3,14-6.2c14,0.2,27.9,0,41.9,0.1c2.4,0,3.3-0.6,3.8-3c2-11.3,4.2-22.6,6.4-33.9
				C203.5,130.1,204.6,123.7,205.9,116.9z"/>
		</g>
	</g>
</g>
</svg>
