<?xml version="1.0" encoding="utf-8"?>
<!-- Generator: Adobe Illustrator 26.0.0, SVG Export Plug-In . SVG Version: 6.00 Build 0)  -->
<svg version="1.1" id="Layer_1" xmlns="http://www.w3.org/2000/svg" xmlns:xlink="http://www.w3.org/1999/xlink" x="0px" y="0px"
	 viewBox="0 0 28 28" style="enable-background:new 0 0 28 28;" xml:space="preserve">

<path class="st0" d="M14,3.3C8.1,3.3,3.3,8.1,3.3,14S8.1,24.7,14,24.7S24.7,19.9,24.7,14S19.9,3.3,14,3.3z M23.3,13.3h-4.6
	c-0.2-3.1-1.3-6-3.1-8.5C19.7,5.6,22.9,9,23.3,13.3z M10.7,14.7h6.5c-0.2,3-1.3,5.9-3.3,8.2C12.1,20.6,11,17.7,10.7,14.7z
	 M10.7,13.3c0.2-3,1.3-5.9,3.3-8.2c1.9,2.3,3,5.2,3.3,8.2H10.7z M12.4,4.8c-1.8,2.5-2.9,5.4-3.1,8.5H4.7C5.1,9,8.3,5.6,12.4,4.8z
	 M4.7,14.7h4.6c0.2,3.1,1.3,6,3.1,8.5C8.3,22.4,5.1,19,4.7,14.7z M15.6,23.2c1.8-2.5,2.9-5.4,3.1-8.5h4.6
	C22.9,19,19.7,22.4,15.6,23.2z" fill="#032222"/>
</svg>
