<?xml version="1.0" encoding="utf-8"?>
<!-- Generator: Adobe Illustrator 26.2.1, SVG Export Plug-In . SVG Version: 6.00 Build 0)  -->
<svg version="1.1" id="Layer_1" xmlns="http://www.w3.org/2000/svg" xmlns:xlink="http://www.w3.org/1999/xlink" x="0px" y="0px"
	 viewBox="0 0 28 28" style="enable-background:new 0 0 28 28;" xml:space="preserve">
<g>
	<path class="st0" d="M14,24.7c-0.2,0-0.4-0.1-0.5-0.2l-9.6-9.6c-2.6-2.6-2.6-6.9,0-9.5c2.6-2.6,6.9-2.6,9.5,0L14,5.9l0.6-0.6
		c0,0,0,0,0,0c2.6-2.6,6.9-2.6,9.5,0l0,0c1.3,1.3,2,3,2,4.8c0,1.8-0.7,3.5-2,4.8l-9.6,9.6C14.4,24.6,14.2,24.7,14,24.7z M8.6,4.9
		C7.3,4.9,6,5.4,4.9,6.4c-2,2-2,5.3,0,7.4l9.1,9.1l9.1-9.1c1-1,1.5-2.3,1.5-3.7c0-1.4-0.5-2.7-1.5-3.7l0,0c-1-1-2.3-1.5-3.7-1.5h0
		c-1.4,0-2.7,0.5-3.7,1.5l0,0c0,0,0,0,0,0l-1.1,1.1c-0.3,0.3-0.8,0.3-1.1,0l-1.2-1.2C11.3,5.4,10,4.9,8.6,4.9z"/>
</g>
</svg>
