<?xml version="1.0" encoding="utf-8"?>
<!-- Generator: Adobe Illustrator 26.0.0, SVG Export Plug-In . SVG Version: 6.00 Build 0)  -->
<svg version="1.1" id="Layer_1" xmlns="http://www.w3.org/2000/svg" xmlns:xlink="http://www.w3.org/1999/xlink" x="0px" y="0px"
	 viewBox="0 0 28 28" style="enable-background:new 0 0 28 28;" xml:space="preserve">
<path class="st0" d="M10.5,9.8c-0.4,0-0.8,0.3-0.8,0.8s0.3,0.8,0.8,0.8s0.8-0.3,0.8-0.8S10.9,9.8,10.5,9.8z M10.5,8.2
	c1.2,0,2.2,1,2.2,2.2s-1,2.2-2.2,2.2s-2.2-1-2.2-2.2S9.3,8.2,10.5,8.2z M21,5.8H7C6.3,5.8,5.8,6.3,5.8,7v14c0,0.6,0.4,1.1,1,1.2
	l10.7-10.7c0.3-0.3,0.8-0.3,1.1,0l3.7,3.7V7C22.2,6.3,21.7,5.8,21,5.8z M18,13.1l-9.2,9.2H21c0.7,0,1.2-0.6,1.2-1.2v-3.7L18,13.1z
	 M21,4.2c1.5,0,2.8,1.2,2.8,2.8v14c0,1.5-1.2,2.8-2.8,2.8H7c-1.5,0-2.8-1.2-2.8-2.8V7c0-1.5,1.2-2.8,2.8-2.8H21z"/>
</svg>
