<?xml version="1.0" encoding="utf-8"?>
<!-- Generator: Adobe Illustrator 26.0.0, SVG Export Plug-In . SVG Version: 6.00 Build 0)  -->
<svg version="1.1" id="Layer_1" xmlns="http://www.w3.org/2000/svg" xmlns:xlink="http://www.w3.org/1999/xlink" x="0px" y="0px"
	 viewBox="0 0 28 28" style="enable-background:new 0 0 28 28;" xml:space="preserve">
<style type="text/css">
	.st0{fill-rule:evenodd;clip-rule:evenodd;}
</style>
<path class="st0" d="M14,9.7c-1.3,0-2.3,1-2.3,2.3s1,2.3,2.3,2.3c1.3,0,2.3-1,2.3-2.3S15.3,9.7,14,9.7z M14,8.3c2,0,3.7,1.7,3.7,3.7
	S16,15.7,14,15.7S10.3,14,10.3,12S12,8.3,14,8.3z M14,3.7c-4.6,0-8.3,3.7-8.3,8.3c0,5.7,6.6,10.9,8.3,12.1c1.7-1.2,8.3-6.4,8.3-12.1
	C22.3,7.4,18.6,3.7,14,3.7z M14,2.3c5.3,0,9.7,4.4,9.7,9.7c0,7.3-8.9,13.3-9.3,13.6c-0.1,0.1-0.3,0.1-0.4,0.1s-0.3,0-0.4-0.1
	c-0.4-0.3-9.3-6.3-9.3-13.6C4.3,6.7,8.7,2.3,14,2.3z" fill="#032222"/>
</svg>
