<?xml version="1.0" encoding="utf-8"?>
<!-- Generator: Adobe Illustrator 26.0.0, SVG Export Plug-In . SVG Version: 6.00 Build 0)  -->
<svg version="1.1" id="Layer_1" xmlns="http://www.w3.org/2000/svg" xmlns:xlink="http://www.w3.org/1999/xlink" x="0px" y="0px"
	 viewBox="0 0 28 28" style="enable-background:new 0 0 28 28;" xml:space="preserve">
<path class="st0" d="M14,9.5c-4.8,0-8.8,3.7-9.3,8.5c0,0.1,0,0.1,0,0.1l0.1,0h18.4l0.1-0.1C22.9,13.3,18.8,9.5,14,9.5z M16.7,4.2
	c0.4,0,0.7,0.3,0.7,0.7c0,0.4-0.3,0.7-0.7,0.7l-2,0l0,2.6c5.2,0.3,9.5,4.5,10,9.8c0,0.4-0.1,0.8-0.4,1.1c-0.3,0.3-0.7,0.5-1.1,0.5
	H4.8c-0.4,0-0.8-0.2-1.1-0.5c-0.3-0.3-0.4-0.7-0.4-1.2c0.5-5.2,4.8-9.4,10-9.7l0-2.6l-2,0c-0.4,0-0.7-0.3-0.7-0.7
	c0-0.4,0.3-0.7,0.7-0.7H16.7z M22.3,20.5c1.4,0,2.5,1.1,2.5,2.5v0.2c0,0.4-0.3,0.7-0.7,0.7c-0.4,0-0.7-0.3-0.7-0.7V23
	c0-0.6-0.5-1.1-1.1-1.1H5.7c-0.6,0-1.1,0.5-1.1,1.1v0.2c0,0.4-0.3,0.7-0.7,0.7c-0.4,0-0.7-0.3-0.7-0.7V23c0-1.4,1.1-2.5,2.5-2.5
	H22.3z" fill="#032222" fill-rule="evenodd" clip-rule="evenodd"/>
</svg>
