<?xml version="1.0" encoding="utf-8"?>
<!-- Generator: Adobe Illustrator 26.0.0, SVG Export Plug-In . SVG Version: 6.00 Build 0)  -->
<svg version="1.1" id="Layer_1" xmlns="http://www.w3.org/2000/svg" xmlns:xlink="http://www.w3.org/1999/xlink" x="0px" y="0px"
	 viewBox="0 0 28 28" style="enable-background:new 0 0 28 28;" xml:space="preserve">
<style type="text/css">
	.st0{fill-rule:evenodd;clip-rule:evenodd;}
</style>
<path class="st0" d="M10.4,3c0.4,0,0.6,0.3,0.7,0.6l0,0.1v4.4c0,0.4-0.3,0.7-0.7,0.7c-0.4,0-0.6-0.3-0.7-0.6l0-0.1V3.7
	C9.7,3.3,10,3,10.4,3z M8,3c0.4,0,0.6,0.3,0.7,0.6l0,0.1v4.4c0,0.4-0.3,0.7-0.7,0.7c-0.4,0-0.6-0.3-0.7-0.6l0-0.1V3.7
	C7.3,3.3,7.6,3,8,3z M20.9,4.3c-0.5,0-2.7,0.1-2.8,11.4h3.6l0-2v-1.2c0,0,0,0,0,0l0-7.4C21.8,4.5,21.4,4.3,20.9,4.3z M21.7,17.1
	h-1.1v6.3c0,0.2,0.2,0.4,0.5,0.4c0.3,0,0.5-0.2,0.5-0.4V17.1z M9.7,12.9c-0.2,0-0.4,0-0.5,0c-0.1,0-0.2,0-0.4,0l-0.2,0v10.5
	c0,0.2,0.2,0.4,0.5,0.4c0.3,0,0.5-0.2,0.5-0.3l0-0.1V12.9z M20.9,2.9c2,0,2.3,1.4,2.3,2.2l-0.1,8.7v9.6c0,1-0.9,1.8-1.9,1.8
	s-1.9-0.8-1.9-1.8v-6.3h-1.8c-0.4,0-0.7-0.3-0.7-0.7l0-0.1C16.7,5.2,19,2.9,20.9,2.9z M12.9,3c0.4,0,0.6,0.3,0.7,0.6l0,0.1v5.4
	c0,1.4-0.9,2.6-2.2,3.3l-0.2,0.1v10.9c0,1-0.9,1.8-1.9,1.8c-1,0-1.9-0.7-1.9-1.6l0-0.1V12.5c-1.4-0.6-2.3-1.8-2.4-3.2l0-0.2V3.7
	C4.8,3.3,5.1,3,5.5,3c0.4,0,0.6,0.3,0.7,0.6l0,0.1v5.4c0,1.3,1.3,2.4,3,2.4c1.6,0,2.9-1,3-2.3l0-0.2V3.7C12.2,3.3,12.5,3,12.9,3z" fill="#032222" />
</svg>
