<?xml version="1.0" encoding="utf-8"?>
<!-- Generator: Adobe Illustrator 26.0.0, SVG Export Plug-In . SVG Version: 6.00 Build 0)  -->
<svg version="1.1" id="Layer_1" xmlns="http://www.w3.org/2000/svg" xmlns:xlink="http://www.w3.org/1999/xlink" x="0px" y="0px"
	 viewBox="0 0 28 28" style="enable-background:new 0 0 28 28;" xml:space="preserve">
<style type="text/css">
	.st0{fill-rule:evenodd;clip-rule:evenodd;}
</style>
<path class="st0" d="M16.6,9.5h-5.2c-0.3,0-0.5,0.2-0.5,0.5V15h5.8c0.3,0,0.5-0.2,0.5-0.5v-4.4C17.2,9.8,16.9,9.5,16.6,9.5z
	 M16.6,8.1c1.1,0,1.9,0.9,1.9,1.9v4.4c0,1.1-0.9,1.9-1.9,1.9h-5.8v3.2c0,0.4-0.3,0.7-0.7,0.7S9.4,20,9.4,19.6v-9.6
	c0-1.1,0.9-1.9,1.9-1.9H16.6z M19.1,4.8H8.9c-2.3,0-4.1,1.9-4.1,4.1v10.2c0,2.3,1.9,4.1,4.1,4.1h10.2c2.3,0,4.1-1.9,4.1-4.1V8.9
	C23.2,6.6,21.4,4.8,19.1,4.8z M19.1,3.4c3.1,0,5.5,2.5,5.5,5.5v10.2c0,3.1-2.5,5.5-5.5,5.5H8.9c-3.1,0-5.5-2.5-5.5-5.5V8.9
	c0-3.1,2.5-5.5,5.5-5.5H19.1z" fill="#032222"/>
</svg>
