<?xml version="1.0" encoding="utf-8"?>
<!-- Generator: Adobe Illustrator 28.1.0, SVG Export Plug-In . SVG Version: 6.00 Build 0)  -->
<svg version="1.1" id="Layer_1" xmlns="http://www.w3.org/2000/svg" xmlns:xlink="http://www.w3.org/1999/xlink" x="0px" y="0px"
	 viewBox="0 0 28 28" style="enable-background:new 0 0 28 28;" xml:space="preserve">
<g>
	<path class="st0" d="M22.6,9.7c0-0.1-0.1-0.2-0.2-0.2l-6-6c-0.1-0.1-0.1-0.1-0.2-0.2c-0.1,0-0.2-0.1-0.3-0.1H8
		C6.5,3.3,5.3,4.5,5.3,6v16c0,1.5,1.2,2.7,2.7,2.7h12c1.5,0,2.7-1.2,2.7-2.7V10C22.7,9.9,22.7,9.8,22.6,9.7z M16.7,5.7l3.6,3.6h-3.6
		V5.7z M21.3,22c0,0.7-0.6,1.3-1.3,1.3H8c-0.7,0-1.3-0.6-1.3-1.3V6c0-0.7,0.6-1.3,1.3-1.3h7.3V10c0,0.4,0.3,0.7,0.7,0.7h5.3V22z"/>
	<path class="st0" d="M10.3,11.7h2.4c0.4,0,0.7-0.3,0.7-0.7s-0.3-0.7-0.7-0.7h-2.4c-0.4,0-0.7,0.3-0.7,0.7S9.9,11.7,10.3,11.7z"/>
	<path class="st0" d="M9.6,15c0,0.4,0.3,0.7,0.7,0.7h7.4c0.4,0,0.7-0.3,0.7-0.7c0-0.4-0.3-0.7-0.7-0.7h-7.4
		C9.9,14.3,9.6,14.6,9.6,15z"/>
	<path class="st0" d="M17.7,18.3h-7.4c-0.4,0-0.7,0.3-0.7,0.7s0.3,0.7,0.7,0.7h7.4c0.4,0,0.7-0.3,0.7-0.7S18.1,18.3,17.7,18.3z"/>
</g>
</svg>
