<?xml version="1.0" encoding="utf-8"?>
<!-- Generator: Adobe Illustrator 26.0.0, SVG Export Plug-In . SVG Version: 6.00 Build 0)  -->
<svg version="1.1" id="Layer_1" xmlns="http://www.w3.org/2000/svg" xmlns:xlink="http://www.w3.org/1999/xlink" x="0px" y="0px"
	 viewBox="0 0 28 28" style="enable-background:new 0 0 28 28;" xml:space="preserve">
<style type="text/css">
	.st0{fill-rule:evenodd;clip-rule:evenodd;}
</style>
<path class="st0" d="M11,5.7C9.2,5.7,7.7,7.2,7.7,9s1.5,3.3,3.3,3.3s3.3-1.5,3.3-3.3S12.8,5.7,11,5.7z M17.3,5
	c0.1-0.4,0.5-0.6,0.9-0.5c2.5,0.6,4,3.2,3.4,5.7c-0.4,1.7-1.7,3-3.4,3.4c-0.1,0-0.1,0-0.2,0c-0.3,0-0.6-0.2-0.7-0.5
	c-0.1-0.4,0.1-0.8,0.5-0.9c1.2-0.3,2.1-1.2,2.4-2.4c0.5-1.8-0.6-3.6-2.4-4C17.5,5.7,17.2,5.3,17.3,5z M11,4.3c2.6,0,4.7,2.1,4.7,4.7
	s-2.1,4.7-4.7,4.7S6.3,11.6,6.3,9S8.4,4.3,11,4.3z M21.3,17c0.1-0.4,0.5-0.6,0.9-0.5c2.1,0.5,3.5,2.4,3.5,4.5v2
	c0,0.4-0.3,0.7-0.7,0.7c-0.4,0-0.7-0.3-0.7-0.7v-2c0-1.5-1-2.8-2.5-3.2C21.4,17.7,21.2,17.3,21.3,17z M15,16.3
	c2.6,0,4.7,2.1,4.7,4.7v2c0,0.4-0.3,0.7-0.7,0.7c-0.4,0-0.7-0.3-0.7-0.7v-2c0-1.8-1.5-3.3-3.3-3.3H7c-1.8,0-3.3,1.5-3.3,3.3v2
	c0,0.4-0.3,0.7-0.7,0.7S2.3,23.4,2.3,23v-2c0-2.6,2.1-4.7,4.7-4.7H15z" fill="#032222"/>
</svg>
