<?xml version="1.0" encoding="utf-8"?>
<!-- Generator: Adobe Illustrator 27.0.1, SVG Export Plug-In . SVG Version: 6.00 Build 0)  -->
<svg version="1.1" id="Layer_1" xmlns="http://www.w3.org/2000/svg" xmlns:xlink="http://www.w3.org/1999/xlink" x="0px" y="0px"
	 viewBox="0 0 28 28" style="enable-background:new 0 0 28 28;" xml:space="preserve">
<style type="text/css">
	.st0{fill-rule:evenodd;clip-rule:evenodd;}
</style>

	<path class="st0" d="M24,5.5c-0.3-0.3-0.7-0.3-1,0L13.5,15L11,12.5c-0.3-0.3-0.7-0.3-1,0s-0.3,0.7,0,1l3,3c0.1,0.1,0.3,0.2,0.5,0.2
		s0.4-0.1,0.5-0.2l10-10C24.3,6.2,24.3,5.8,24,5.5z M22.5,13.3c-0.4,0-0.7,0.3-0.7,0.7v7c0,0.7-0.6,1.3-1.3,1.3h-14
		c-0.7,0-1.3-0.6-1.3-1.3V7c0-0.7,0.6-1.3,1.3-1.3h11c0.4,0,0.7-0.3,0.7-0.7s-0.3-0.7-0.7-0.7h-11C5,4.3,3.8,5.5,3.8,7v14
		c0,1.5,1.2,2.7,2.7,2.7h14c1.5,0,2.7-1.2,2.7-2.7v-7C23.2,13.6,22.9,13.3,22.5,13.3z"/>

</svg>
