<?xml version="1.0" encoding="utf-8"?>
<!-- Generator: Adobe Illustrator 28.1.0, SVG Export Plug-In . SVG Version: 6.00 Build 0)  -->
<svg version="1.1" id="Layer_1" xmlns="http://www.w3.org/2000/svg" xmlns:xlink="http://www.w3.org/1999/xlink" x="0px" y="0px"
	 viewBox="0 0 28 28" style="enable-background:new 0 0 28 28;" xml:space="preserve">
<style type="text/css">
	.st0{fill:#032222;}
</style>
<g>
	<path class="st0" d="M24.2,3.1H3.8c-1.3,0-2.4,1.1-2.4,2.4v17.1c0,1.3,1.1,2.4,2.4,2.4h20.5c1.3,0,2.4-1.1,2.4-2.4V5.4
		C26.6,4.1,25.5,3.1,24.2,3.1z M25.4,22.6c0,0.6-0.5,1.2-1.2,1.2H3.8c-0.6,0-1.2-0.5-1.2-1.2V5.4c0-0.6,0.5-1.2,1.2-1.2h20.5
		c0.6,0,1.2,0.5,1.2,1.2V22.6z"/>
	<path class="st0" d="M22.3,6.5h-7.1c-0.7,0-1.3,0.6-1.3,1.3v7.5c0,0.7,0.6,1.3,1.3,1.3h7.1c0.7,0,1.3-0.6,1.3-1.3V7.8
		C23.6,7.1,23,6.5,22.3,6.5z M22.4,15.2C22.4,15.3,22.4,15.3,22.4,15.2l-7.2,0.1c0,0-0.1,0-0.1-0.1V7.8c0,0,0-0.1,0.1-0.1h7.1
		c0,0,0.1,0,0.1,0.1V15.2z"/>
	<path class="st0" d="M22.6,17.3h-7.7c-0.6,0-1,0.4-1,1v2.2c0,0.6,0.4,1,1,1h7.7c0.6,0,1-0.4,1-1v-2.2
		C23.6,17.8,23.2,17.3,22.6,17.3z M22.4,20.3h-7.3v-1.8h7.3V20.3z"/>
	<path class="st0" d="M5.9,16.4c-0.3,0-0.6,0.3-0.6,0.6v4c0,0.3,0.3,0.6,0.6,0.6s0.6-0.3,0.6-0.6v-4C6.5,16.6,6.2,16.4,5.9,16.4z"/>
	<path class="st0" d="M8.6,12.3c-0.3,0-0.6,0.3-0.6,0.6v8c0,0.3,0.3,0.6,0.6,0.6s0.6-0.3,0.6-0.6v-8C9.2,12.6,9,12.3,8.6,12.3z"/>
	<path class="st0" d="M11.4,6.8c-0.3,0-0.6,0.3-0.6,0.6v13.5c0,0.3,0.3,0.6,0.6,0.6s0.6-0.3,0.6-0.6V7.4C12,7.1,11.7,6.8,11.4,6.8z"
		/>
</g>
</svg>
