<?xml version="1.0" encoding="utf-8"?>
<!-- Generator: Adobe Illustrator 27.1.1, SVG Export Plug-In . SVG Version: 6.00 Build 0)  -->
<svg version="1.1" id="Layer_1" xmlns="http://www.w3.org/2000/svg" xmlns:xlink="http://www.w3.org/1999/xlink" x="0px" y="0px"
	 viewBox="0 0 28 28" style="enable-background:new 0 0 28 28;" xml:space="preserve">
<path class="st0" d="M12.3,21c0-0.9,0.8-1.7,1.7-1.7s1.7,0.8,1.7,1.7s-0.8,1.7-1.7,1.7S12.3,21.9,12.3,21z M12.3,7
	c0-0.9,0.8-1.7,1.7-1.7s1.7,0.8,1.7,1.7S14.9,8.7,14,8.7S12.3,7.9,12.3,7z M12.3,14c0-0.9,0.8-1.7,1.7-1.7s1.7,0.8,1.7,1.7
	s-0.8,1.7-1.7,1.7S12.3,14.9,12.3,14z"/>
</svg>
