<?xml version="1.0" encoding="utf-8"?>
<!-- Generator: Adobe Illustrator 26.0.0, SVG Export Plug-In . SVG Version: 6.00 Build 0)  -->
<svg version="1.1" id="Layer_1" xmlns="http://www.w3.org/2000/svg" xmlns:xlink="http://www.w3.org/1999/xlink" x="0px" y="0px"
	 viewBox="0 0 28 28" style="enable-background:new 0 0 28 28;" xml:space="preserve">
<style type="text/css">
	.st0{fill-rule:evenodd;clip-rule:evenodd;}
</style>
<path class="st0" d="M19.4,5.4c0.4,0,0.7,0.3,0.7,0.7c0,0.4-0.3,0.7-0.7,0.7H8.6c-0.4,0-0.7-0.3-0.7-0.7c0-0.4,0.3-0.7,0.7-0.7H19.4
	z M19.7,8.9H8.3C8,8.9,7.7,9.2,7.7,9.6v1.8c0,1,0.8,1.8,1.8,1.8h8.9c1,0,1.8-0.8,1.8-1.8V9.6C20.3,9.2,20,8.9,19.7,8.9z M19.7,7.5
	c1.1,0,2,0.9,2,2v1.8c0,1.8-1.5,3.2-3.2,3.2H9.5c-1.8,0-3.2-1.5-3.2-3.2V9.6c0-1.1,0.9-2,2-2H19.7z M17.7,16.6
	c-0.5,0-0.9,0.4-0.9,0.9c0,0.5,0.4,0.9,0.9,0.9c0.5,0,0.9-0.4,0.9-0.9C18.7,17,18.2,16.6,17.7,16.6z M10.3,16.6
	c-0.5,0-0.9,0.4-0.9,0.9c0,0.5,0.4,0.9,0.9,0.9c0.5,0,0.9-0.4,0.9-0.9C11.3,17,10.9,16.6,10.3,16.6z M17.7,15.2
	c1.3,0,2.3,1.1,2.3,2.3c0,1.3-1.1,2.3-2.3,2.3s-2.3-1.1-2.3-2.3C15.4,16.2,16.4,15.2,17.7,15.2z M10.3,15.2c1.3,0,2.3,1.1,2.3,2.3
	c0,1.3-1.1,2.3-2.3,2.3S8,18.8,8,17.5C8,16.2,9,15.2,10.3,15.2z M19.1,4.3H8.9c-2.3,0-4.1,1.9-4.1,4.1v8.4c0,2.3,1.9,4.1,4.1,4.1
	h10.2c2.3,0,4.1-1.9,4.1-4.1V8.4C23.2,6.1,21.4,4.3,19.1,4.3z M19.1,2.9c3.1,0,5.5,2.5,5.5,5.5v8.4c0,3.1-2.5,5.5-5.5,5.5H8.9
	c-3.1,0-5.5-2.5-5.5-5.5V8.4c0-3.1,2.5-5.5,5.5-5.5H19.1z M19.4,23.7c0.4,0,0.7,0.3,0.7,0.7s-0.3,0.7-0.7,0.7H8.6
	c-0.4,0-0.7-0.3-0.7-0.7s0.3-0.7,0.7-0.7H19.4z" fill="#032222"/>
</svg>
