<?xml version="1.0" encoding="utf-8"?>
<!-- Generator: Adobe Illustrator 27.2.0, SVG Export Plug-In . SVG Version: 6.00 Build 0)  -->
<svg version="1.1" id="Layer_1" xmlns="http://www.w3.org/2000/svg" xmlns:xlink="http://www.w3.org/1999/xlink" x="0px" y="0px"
	 viewBox="0 0 28 28" style="enable-background:new 0 0 28 28;" xml:space="preserve">
<path class="st0" d="M24.5,8.2c0-0.1,0-0.2-0.1-0.2c-0.1-0.1-0.1-0.2-0.2-0.2c-0.2-0.3-0.5-0.6-0.9-0.8l-7.9-4.5
	c-0.9-0.5-2-0.5-2.9,0L4.7,6.9C4.3,7.1,4,7.4,3.8,7.7C3.7,7.8,3.6,7.9,3.6,7.9c0,0.1-0.1,0.2-0.1,0.2C3.3,8.6,3.2,9,3.2,9.5v9
	c0,1,0.6,2,1.5,2.5l7.9,4.5c0.3,0.2,0.7,0.3,1.1,0.3c0.1,0.1,0.3,0.1,0.4,0.1c0.2,0,0.3-0.1,0.4-0.1c0.4-0.1,0.7-0.1,1.1-0.3
	l7.9-4.5c0.9-0.5,1.5-1.5,1.5-2.5v0v-9C24.8,9,24.7,8.6,24.5,8.2z M13.2,3.6c0.2-0.1,0.5-0.2,0.8-0.2c0.3,0,0.5,0.1,0.8,0.2l7.9,4.5
	c0,0,0,0,0,0l-8.7,5l-8.7-5c0,0,0,0,0,0L13.2,3.6z M5.4,19.8c-0.5-0.3-0.8-0.8-0.8-1.3v-9c0,0,0-0.1,0-0.1l8.7,5v9.9
	c0,0-0.1,0-0.1,0L5.4,19.8z M23.4,18.4c0,0.5-0.3,1.1-0.8,1.3l-7.9,4.5c0,0,0,0-0.1,0v-9.9l8.7-5c0,0,0,0.1,0,0.1V18.4z"/>
</svg>
