<?xml version="1.0" encoding="utf-8"?>
<!-- Generator: Adobe Illustrator 26.0.0, SVG Export Plug-In . SVG Version: 6.00 Build 0)  -->
<svg version="1.1" id="Layer_1" xmlns="http://www.w3.org/2000/svg" xmlns:xlink="http://www.w3.org/1999/xlink" x="0px" y="0px"
	 viewBox="0 0 28 28" style="enable-background:new 0 0 28 28;" xml:space="preserve">
<path class="st0" d="M4.5,23.5c-0.2-0.2-0.3-0.5-0.2-0.7l1.8-5.4c-0.6-1.2-0.8-2.5-0.8-3.8c0-3.5,2-6.7,5.1-8.2c1.3-0.6,2.7-1,4.1-1
	H15c4.7,0.3,8.4,4,8.7,8.7l0,0.5c0,1.4-0.3,2.8-1,4.1c-1.6,3.1-4.7,5.1-8.2,5.1c-1.3,0-2.6-0.3-3.8-0.8l-5.4,1.8c-0.1,0-0.1,0-0.2,0
	C4.8,23.7,4.6,23.6,4.5,23.5z M14.5,5.7c-1.2,0-2.4,0.3-3.5,0.8c-2.7,1.3-4.3,4-4.3,7c0,1.2,0.3,2.4,0.8,3.5c0.1,0.2,0.1,0.4,0,0.5
	l-1.5,4.4l4.4-1.5c0.2-0.1,0.4,0,0.5,0c1.1,0.5,2.3,0.8,3.5,0.8h0c3,0,5.6-1.7,7-4.3c0.5-1.1,0.8-2.3,0.8-3.5V13
	c-0.2-3.9-3.4-7.1-7.3-7.3L14.5,5.7L14.5,5.7z"/>
</svg>
