<?xml version="1.0" encoding="utf-8"?>
<!-- Generator: Adobe Illustrator 26.0.0, SVG Export Plug-In . SVG Version: 6.00 Build 0)  -->
<svg version="1.1" id="Layer_1" xmlns="http://www.w3.org/2000/svg" xmlns:xlink="http://www.w3.org/1999/xlink" x="0px" y="0px"
	 viewBox="0 0 28 28" style="enable-background:new 0 0 28 28;" xml:space="preserve">
<path class="st0" d="M16.7,5.7v3.6h3.6L16.7,5.7z M14,13.3c0.4,0,0.7,0.3,0.7,0.7v2.3H17c0.4,0,0.7,0.3,0.7,0.7
	c0,0.4-0.3,0.7-0.7,0.7h-2.3V20c0,0.4-0.3,0.7-0.7,0.7s-0.7-0.3-0.7-0.7v-2.3H11c-0.4,0-0.7-0.3-0.7-0.7c0-0.4,0.3-0.7,0.7-0.7h2.3
	V14C13.3,13.6,13.6,13.3,14,13.3z M15.3,4.7H8C7.3,4.7,6.7,5.3,6.7,6v16c0,0.7,0.6,1.3,1.3,1.3h12c0.7,0,1.3-0.6,1.3-1.3V10.7H16
	c-0.4,0-0.7-0.3-0.7-0.7V4.7z M16,3.3c0.1,0,0.2,0,0.3,0.1c0.1,0,0.2,0.1,0.2,0.2l6,6c0.1,0.1,0.1,0.1,0.2,0.2
	c0,0.1,0.1,0.2,0.1,0.3v12c0,1.5-1.2,2.7-2.7,2.7H8c-1.5,0-2.7-1.2-2.7-2.7V6c0-1.5,1.2-2.7,2.7-2.7H16z"/>
</svg>
