<?xml version="1.0" encoding="utf-8"?>
<!-- Generator: Adobe Illustrator 28.1.0, SVG Export Plug-In . SVG Version: 6.00 Build 0)  -->
<svg version="1.1" id="Layer_1" xmlns="http://www.w3.org/2000/svg" xmlns:xlink="http://www.w3.org/1999/xlink" x="0px" y="0px"
	 viewBox="0 0 28 28" style="enable-background:new 0 0 28 28;" xml:space="preserve">

<g>
	<path class="st0" d="M22,23.7H6c-1.5,0-2.7-1.2-2.7-2.7V7c0-1.5,1.2-2.7,2.7-2.7h5c0.2,0,0.5,0.1,0.6,0.3l1.8,2.7H22
		c1.5,0,2.7,1.2,2.7,2.7v11C24.7,22.5,23.5,23.7,22,23.7z M6,5.7C5.3,5.7,4.7,6.3,4.7,7v14c0,0.7,0.6,1.3,1.3,1.3h16
		c0.7,0,1.3-0.6,1.3-1.3V10c0-0.7-0.6-1.3-1.3-1.3h-9c-0.2,0-0.5-0.1-0.6-0.3l-1.8-2.7H6z"/>
</g>
<path class="st0" d="M17,14.3h-2.3V12c0-0.4-0.3-0.7-0.7-0.7s-0.7,0.3-0.7,0.7v2.3H11c-0.4,0-0.7,0.3-0.7,0.7c0,0.4,0.3,0.7,0.7,0.7
	h2.3V18c0,0.4,0.3,0.7,0.7,0.7s0.7-0.3,0.7-0.7v-2.3H17c0.4,0,0.7-0.3,0.7-0.7C17.7,14.6,17.4,14.3,17,14.3z"/>
</svg>
