<?xml version="1.0" encoding="UTF-8"?>
<svg width="220" height="220" enable-background="new" version="1.1" viewBox="0 0 220 220" xmlns="http://www.w3.org/2000/svg">
 <g transform="matrix(.62299 0 0 .62299 -17.949 1.2269)">
  <rect transform="rotate(-45.517)" x="-70.652" y="179.08" width="202.26" height="202.26" fill="#f1f6f6"/>
  <path d="m291.64 182c-16.072 8.918-31.939 18.249-47.764 27.607-1.0916 18.759-0.67335 37.822-0.16601 56.65 13.665 8.128 27.519 15.944 41.25 23.963 2.2205 1.2703 4.4207 2.5768 6.6836 3.7715 16.19-9.187 32.356-18.461 48.316-28.037v-56.18c-16.107-9.256-32.036-18.841-48.32-27.775z" fill="#d37121" stroke="#fffff8" stroke-width=".306"/>
  <path d="m260.34 84.418c-10.929 0.0037-21.909 5.3915-27.127 15.551-10.833 17.543 1.1892 43.007 21.574 45.859v2e-3c5.022 0.9173 10.262 0.43396 15.094-1.1777 20.65-5.995 28.126-34.855 13.135-50.186-5.705-6.797-14.175-10.052-22.676-10.049z" fill="#356e70" stroke="#fffff8" stroke-width=".306"/>
  <path d="m53.625 242.5-7.1581-7.1639 15.411-15.424c8.476-8.4833 15.411-15.657 15.411-15.943s-0.61113-1.333-1.3581-2.3286c-9.5141-12.682-14.626-30.205-13.291-45.56 1.0297-11.84 3.9788-21.242 9.5887-30.569 6.8144-11.329 17.401-20.968 29.091-26.485 2.8455-1.3432 7.6496-3.2229 9.4694-3.7051 6.5769-1.7428 9.2586-2.2207 15.102-2.6914 9.0108-0.72577 19.572 0.76884 28.31 4.0063 20.879 7.7357 37.342 26.149 42.384 47.403 1.1786 4.9692 1.4017 6.3746 1.846 11.63 1.0116 11.968-1.411 24.478-6.8736 35.494-3.4256 6.9086-7.3413 12.306-13.071 18.018-6.0391 6.0199-11.769 10.089-18.94 13.452-14.639 6.8645-30.691 8.2944-46.591 4.1504-5.6032-1.4604-13.16-4.6673-17.533-7.4404-0.87877-0.5573-1.8796-1.0133-2.2241-1.0133-0.38392 0-6.6323 6.0638-16.144 15.667-8.5344 8.6167-15.687 15.667-15.895 15.667-0.2076 0-3.5986-3.2238-7.5356-7.1639zm85.164-28.99c15.398-2.743 27.749-10.697 35.99-23.179 4.5282-6.8579 6.3988-11.697 8.482-21.942 0.64691-3.1815 0.45471-12.755-0.33576-16.725-1.0307-5.1763-1.1431-5.6364-1.9536-7.9946-5.5055-16.019-18.234-28.598-34.016-33.616-6.777-2.1548-9.3102-2.5404-16.5-2.5111-10.428 0.0425-18.402 2.1829-26.909 7.2221-13.664 8.0946-22.919 21.785-25.621 37.901-0.54567 3.2548-0.5471 13.171-0.0023 16.167 2.596 14.275 9.0431 25.351 19.683 33.815 7.4004 5.8867 13.399 8.5139 25.016 10.956 2.4228 0.50939 13.133 0.44851 16.167-0.0919z" fill="#742f6b"/>
 </g>
</svg>
