<?xml version="1.0" encoding="utf-8"?>
<!-- Generator: Adobe Illustrator 26.0.0, SVG Export Plug-In . SVG Version: 6.00 Build 0)  -->
<svg version="1.1" id="Layer_1" xmlns="http://www.w3.org/2000/svg" xmlns:xlink="http://www.w3.org/1999/xlink" x="0px" y="0px"
	 viewBox="0 0 28 28" style="enable-background:new 0 0 28 28;" xml:space="preserve">

<path class="st0" d="M14,4.7C11,4.7,8.7,7.1,8.7,10c0,4.4-1.2,7-2.1,8.3h14.8c-0.9-1.3-2.1-3.9-2.1-8.3C19.3,7.1,16.9,4.7,14,4.7z
	 M14,3.3c3.7,0,6.7,3,6.7,6.7c0,5.9,2.2,8,2.6,8.4l0.1,0c0,0,0,0,0,0c0.3,0.2,0.4,0.5,0.3,0.8c-0.1,0.3-0.4,0.5-0.7,0.5H5
	c-0.3,0-0.6-0.2-0.7-0.5c-0.1-0.3,0-0.6,0.3-0.8c0,0,0,0,0,0l0,0c0,0,0.1-0.1,0.1-0.1l0.1-0.1c0.7-0.7,2.4-3,2.4-8.1
	C7.3,6.3,10.3,3.3,14,3.3z M16.1,22.4c0.3,0.2,0.4,0.6,0.3,1c-0.5,0.9-1.4,1.3-2.3,1.3c-0.5,0-0.9-0.1-1.3-0.4c-0.4-0.2-0.7-0.6-1-1
	c-0.2-0.3-0.1-0.8,0.3-1c0.3-0.2,0.8-0.1,1,0.3c0.1,0.2,0.3,0.4,0.5,0.5c0.6,0.4,1.4,0.1,1.8-0.5C15.3,22.3,15.7,22.2,16.1,22.4z" fill="#032222"/>
</svg>
