<?xml version="1.0" encoding="utf-8"?>
<!-- Generator: Adobe Illustrator 26.2.1, SVG Export Plug-In . SVG Version: 6.00 Build 0)  -->
<svg version="1.1" id="Layer_1" xmlns="http://www.w3.org/2000/svg" xmlns:xlink="http://www.w3.org/1999/xlink" x="0px" y="0px"
	 viewBox="0 0 12 28" style="enable-background:new 0 0 12 28;" xml:space="preserve">
<path class="st0" d="M3.4,10.7c0,1.1,0.7,1.7,2,2V8.5C4.8,8.6,4.3,8.9,3.9,9.3S3.4,10.1,3.4,10.7z M9.2,17.4c0-0.5-0.2-0.9-0.5-1.3
	c-0.4-0.4-0.9-0.7-1.6-0.8v4.2c0.7-0.1,1.2-0.4,1.6-0.8C9,18.3,9.2,17.9,9.2,17.4z M7.1,23.7H5.4v-2.3c-1.4-0.1-2.5-0.6-3.4-1.5
	c-0.8-0.8-1.3-1.8-1.4-2.9l2.1-0.7c0.1,0.8,0.3,1.4,0.8,2s1.1,0.9,1.9,1.1v-4.6l-0.5-0.1c-1.1-0.2-2-0.7-2.7-1.4
	c-0.6-0.7-1-1.6-1-2.6s0.4-2,1.2-2.8s1.8-1.3,3-1.4V4.3h1.7v2.3c1.2,0.2,2.2,0.6,2.8,1.3c0.7,0.7,1.1,1.5,1.3,2.3l-2,0.7
	C9.2,10.4,9,10,8.6,9.5S7.7,8.8,7.1,8.6v4.5l0.3,0.1c1.2,0.2,2.2,0.7,2.9,1.5c0.7,0.7,1.1,1.6,1.1,2.6c0,1-0.4,2-1.1,2.8
	s-1.8,1.3-3.1,1.4V23.7z"/>
</svg>
