<?xml version="1.0" encoding="utf-8"?>
<!-- Generator: Adobe Illustrator 28.1.0, SVG Export Plug-In . SVG Version: 6.00 Build 0)  -->
<svg version="1.1" id="Layer_1" xmlns="http://www.w3.org/2000/svg" xmlns:xlink="http://www.w3.org/1999/xlink" x="0px" y="0px"
	 viewBox="0 0 28 28" style="enable-background:new 0 0 28 28;" xml:space="preserve">
<style type="text/css">
	.st0{fill:#032222;}
</style>
<path class="st0" d="M24.7,12.1c0,0,0-0.1,0-0.1V6c0-0.4-0.3-0.7-0.7-0.7S23.3,5.6,23.3,6v4.4l-3.4-3.2c-1-1-2.3-1.8-3.6-2.3
	c-5-1.8-10.6,0.9-12.4,5.9c-1.8,5,0.9,10.6,5.9,12.4c1.1,0.4,2.2,0.6,3.2,0.6c4,0,7.8-2.5,9.2-6.5c0.1-0.4-0.1-0.8-0.4-0.9
	c-0.4-0.1-0.8,0.1-0.9,0.4c-1.5,4.3-6.3,6.6-10.6,5.1c-4.3-1.5-6.6-6.3-5.1-10.6c1.5-4.3,6.3-6.6,10.6-5.1c1.2,0.4,2.2,1.1,3.1,2
	l3.3,3.1H18c-0.4,0-0.7,0.3-0.7,0.7s0.3,0.7,0.7,0.7h6c0,0,0,0,0,0c0.1,0,0.1,0,0.1,0c0,0,0.1,0,0.1,0c0,0,0,0,0.1,0
	c0.1,0,0.1-0.1,0.2-0.1c0,0,0,0,0,0c0,0,0-0.1,0.1-0.1c0,0,0.1-0.1,0.1-0.1C24.7,12.2,24.7,12.2,24.7,12.1z"/>
</svg>
