<?xml version="1.0" encoding="utf-8"?>
<!-- Generator: Adobe Illustrator 26.0.0, SVG Export Plug-In . SVG Version: 6.00 Build 0)  -->
<svg version="1.1" id="Layer_1" xmlns="http://www.w3.org/2000/svg" xmlns:xlink="http://www.w3.org/1999/xlink" x="0px" y="0px"
	 viewBox="0 0 28 28" style="enable-background:new 0 0 28 28;" xml:space="preserve">
<path class="st0" d="M23.5,22.5l-3.9-3.9c1.3-1.5,2.1-3.5,2.1-5.6c0-4.8-3.9-8.7-8.7-8.7c-4.8,0-8.7,3.9-8.7,8.7s3.9,8.7,8.7,8.7
	c2.1,0,4.1-0.8,5.6-2.1l3.9,3.9c0.1,0.1,0.3,0.2,0.5,0.2c0.2,0,0.4-0.1,0.5-0.2C23.8,23.2,23.8,22.8,23.5,22.5 M5.7,13
	C5.7,9,9,5.7,13,5.7c4,0,7.3,3.3,7.3,7.3c0,2-0.8,3.8-2.1,5.1c0,0,0,0,0,0c0,0,0,0,0,0c-1.3,1.3-3.1,2.1-5.1,2.1
	C9,20.3,5.7,17,5.7,13"/>
</svg>
