<?xml version="1.0" encoding="utf-8"?>
<!-- Generator: Adobe Illustrator 26.0.0, SVG Export Plug-In . SVG Version: 6.00 Build 0)  -->
<svg version="1.1" id="Layer_1" xmlns="http://www.w3.org/2000/svg" xmlns:xlink="http://www.w3.org/1999/xlink" x="0px" y="0px"
	 viewBox="0 0 28 28" style="enable-background:new 0 0 28 28;" xml:space="preserve">

<path class="st0" d="M14,11.7c-1.3,0-2.3,1-2.3,2.3s1,2.3,2.3,2.3c1.3,0,2.3-1,2.3-2.3S15.3,11.7,14,11.7z M14,10.3
	c2,0,3.7,1.7,3.7,3.7S16,17.7,14,17.7S10.3,16,10.3,14S12,10.3,14,10.3z M14,3.7c-0.7,0-1.3,0.6-1.3,1.3v0.2c0,0.9-0.6,1.8-1.4,2.2
	c-0.1,0-0.1,0-0.2,0.1c-0.8,0.3-1.8,0.1-2.5-0.5C8,6.3,7.2,6.3,6.7,6.8c-0.5,0.5-0.5,1.3,0,1.8c0.7,0.8,0.9,1.8,0.5,2.7
	c-0.3,0.9-1.2,1.5-2.1,1.5H5c-0.7,0-1.3,0.6-1.3,1.3s0.6,1.3,1.3,1.3h0.2c0.9,0,1.8,0.6,2.2,1.4c0.4,0.9,0.2,1.9-0.5,2.6
	c-0.3,0.3-0.4,0.6-0.4,1c0,0.3,0.1,0.6,0.3,0.8l0.1,0.1l0,0c0.5,0.5,1.3,0.5,1.8,0c0.5-0.5,1.1-0.7,1.7-0.7c0.3,0,0.6,0.1,0.9,0.2
	c0.9,0.3,1.5,1.2,1.5,2.1l0,0l0,0.1c0,0.7,0.6,1.3,1.3,1.3c0.7,0,1.3-0.6,1.3-1.3v-0.2c0-0.9,0.6-1.8,1.4-2.2
	c0.9-0.4,1.9-0.2,2.6,0.5c0.6,0.6,1.4,0.6,1.9,0.1c0.5-0.5,0.5-1.3,0-1.8c-0.7-0.8-0.9-1.8-0.5-2.7c0.4-0.9,1.2-1.4,2.1-1.4
	c0.8,0,1.4-0.6,1.4-1.3s-0.6-1.3-1.3-1.3h-0.2c-0.9,0-1.8-0.6-2.2-1.4c0-0.1,0-0.1-0.1-0.2c-0.3-0.8-0.1-1.8,0.5-2.5
	c0.6-0.6,0.6-1.4,0.1-1.9c0,0,0,0,0,0c-0.2-0.2-0.6-0.4-0.9-0.4h0c-0.3,0-0.7,0.1-0.9,0.4c-0.8,0.7-1.8,0.9-2.7,0.5
	c-0.9-0.4-1.4-1.2-1.4-2.1C15.3,4.3,14.7,3.7,14,3.7z M14,2.3c1.5,0,2.7,1.2,2.7,2.7c0,0.5,0.2,0.8,0.6,1c0.4,0.2,0.8,0.1,1.1-0.2
	c0.6-0.6,1.2-0.8,2-0.8c0.8,0,1.4,0.3,1.9,0.8c0,0,0,0,0,0c1.1,1.1,1.1,2.8,0,3.8c-0.3,0.3-0.4,0.7-0.2,1.1c0,0.1,0,0.1,0.1,0.2
	c0.2,0.3,0.5,0.5,0.8,0.5H23c1.5,0,2.7,1.2,2.7,2.7s-1.2,2.7-2.7,2.7c-0.5,0-0.8,0.2-1,0.6c0,0,0,0,0,0c-0.2,0.4-0.1,0.8,0.2,1
	c0.6,0.6,0.8,1.2,0.8,2c0,0.7-0.3,1.4-0.8,1.9c-1.1,1.1-2.8,1.1-3.8,0c-0.3-0.3-0.7-0.4-1.1-0.2c-0.4,0.2-0.6,0.5-0.6,0.9V23
	c0,1.5-1.2,2.7-2.7,2.7s-2.7-1.2-2.7-2.7c0-0.5-0.3-0.8-0.6-0.9c-0.4-0.2-0.8-0.1-1.1,0.2c-1.1,1.1-2.8,1.1-3.9,0.1c0,0,0,0,0,0
	C5.3,21.8,5,21.1,5,20.4c0-0.7,0.3-1.4,0.8-1.9c0.3-0.3,0.4-0.7,0.2-1.1c-0.2-0.4-0.5-0.6-0.9-0.6H5c-1.5,0-2.7-1.2-2.7-2.7
	s1.2-2.7,2.7-2.7c0.5,0,0.8-0.3,0.9-0.6C6.1,10.4,6,9.9,5.8,9.7C4.7,8.6,4.7,6.9,5.7,5.8C6.2,5.3,6.9,5,7.6,5h0C8.3,5,9,5.3,9.5,5.8
	c0.3,0.3,0.7,0.4,1.1,0.2c0.1,0,0.1,0,0.2-0.1c0.3-0.2,0.5-0.5,0.5-0.8V5C11.3,3.5,12.5,2.3,14,2.3z"/>
</svg>
