<?xml version="1.0" encoding="utf-8"?>
<!-- Generator: Adobe Illustrator 26.2.1, SVG Export Plug-In . SVG Version: 6.00 Build 0)  -->
<svg version="1.1" id="Layer_1" xmlns="http://www.w3.org/2000/svg" xmlns:xlink="http://www.w3.org/1999/xlink" x="0px" y="0px"
	 viewBox="0 0 28 28" style="enable-background:new 0 0 28 28;" xml:space="preserve">
<path class="st0" d="M17.8,9.3c0.6,0,0.9,0.4,0.9,0.9c0,0.6-0.4,0.9-0.9,0.9c-0.6,0-0.9-0.4-0.9-0.9C16.8,9.7,17.2,9.3,17.8,9.3
	L17.8,9.3z M10.2,9.3c0.6,0,0.9,0.4,0.9,0.9c0,0.6-0.4,0.9-0.9,0.9c-0.6,0-0.9-0.4-0.9-0.9C9.3,9.7,9.7,9.3,10.2,9.3L10.2,9.3z
	 M10.7,16.2c0,0,1.5,1.9,3.8,1.9c2.4,0,3.8-1.9,3.8-1.9c0.3-0.4,0.8-0.4,1-0.2c0.4,0.3,0.4,0.8,0.2,1.1c-0.1,0.1-1.9,2.5-5,2.5
	s-5-2.4-5-2.5c-0.3-0.3-0.2-0.8,0.1-1C10,15.8,10.4,15.9,10.7,16.2z M14,3.4C8.2,3.4,3.4,8.2,3.4,14S8.2,24.6,14,24.6
	S24.6,19.8,24.6,14S19.8,3.4,14,3.4z M14,1.8c6.8,0,12.2,5.5,12.2,12.2S20.8,26.2,14,26.2S1.8,20.8,1.8,14S7.2,1.8,14,1.8z"/>
</svg>
