<?xml version="1.0" encoding="UTF-8"?>
<svg xmlns="http://www.w3.org/2000/svg" version="1.1" viewBox="0 0 28 28">
  <defs>
  </defs>
  <!-- Generator: Adobe Illustrator 28.6.0, SVG Export Plug-In . SVG Version: 1.2.0 Build 709)  -->
  <g>
    <g id="Layer_1">
      <path class="cls-1" d="M17,21.9V6.1c0-1.5.9-2.6,2-2.6h3c1.1,0,2,1.2,2,2.6v15.7c0,1.5-.9,2.6-2,2.6h-3c-1.1,0-2-1.2-2-2.6ZM23,5.8c0-.7-.4-1.3-1-1.3h-3c-.5,0-1,.6-1,1.3v16.3c0,.7.4,1.3,1,1.3h3c.5,0,1-.6,1-1.3V5.8ZM4,21.9V6.1c0-1.5.9-2.6,2-2.6h3c1.1,0,2,1.2,2,2.6v15.7c0,1.5-.9,2.6-2,2.6h-3c-1.1,0-2-1.2-2-2.6ZM10,5.8c0-.7-.4-1.3-1-1.3h-3c-.5,0-1,.6-1,1.3v16.3c0,.7.4,1.3,1,1.3h3c.5,0,1-.6,1-1.3V5.8Z"/>
    </g>
  </g>
</svg>