<?xml version="1.0" encoding="utf-8"?>
<!-- Generator: Adobe Illustrator 26.0.0, SVG Export Plug-In . SVG Version: 6.00 Build 0)  -->
<svg version="1.1" id="Layer_1" xmlns="http://www.w3.org/2000/svg" xmlns:xlink="http://www.w3.org/1999/xlink" x="0px" y="0px"
	 viewBox="0 0 28 28" style="enable-background:new 0 0 28 28;" xml:space="preserve">
<style type="text/css">
	.st0{fill-rule:evenodd;clip-rule:evenodd;}
</style>
<path class="st0" d="M15.1,8.5c1.5,0.5,2.5,1.9,2.5,3.5c0,2.5-3.3,3.6-3.5,3.7c-0.1,0-0.1,0-0.2,0c-0.3,0-0.6-0.2-0.7-0.5
	c-0.1-0.4,0.1-0.8,0.4-0.9c0,0,2.5-0.9,2.5-2.3c0-1-0.6-1.9-1.5-2.2c-0.6-0.2-1.2-0.2-1.8,0.1c-0.6,0.3-1,0.7-1.2,1.3
	c-0.1,0.4-0.5,0.6-0.9,0.4c-0.4-0.1-0.6-0.5-0.4-0.9c0.3-0.9,1-1.7,1.9-2.1C13.2,8.2,14.2,8.2,15.1,8.5z M14,18.3
	c0.4,0,0.7,0.3,0.7,0.7s-0.3,0.7-0.7,0.7s-0.7-0.3-0.7-0.7S13.6,18.3,14,18.3L14,18.3z M14,4.7c-5.1,0-9.3,4.2-9.3,9.3
	s4.2,9.3,9.3,9.3s9.3-4.2,9.3-9.3S19.1,4.7,14,4.7z M14,3.3c5.9,0,10.7,4.8,10.7,10.7S19.9,24.7,14,24.7S3.3,19.9,3.3,14
	S8.1,3.3,14,3.3z" fill="#032222"/>
</svg>
